<?xml version="1.0" encoding="iso-8859-1"?>
<!-- Uploaded to: SVG Repo, www.svgrepo.com, Generator: SVG Repo Mixer Tools -->
<svg fill="#000000" height="800px" width="800px" version="1.1" id="Layer_1" xmlns="http://www.w3.org/2000/svg" xmlns:xlink="http://www.w3.org/1999/xlink" 
	 viewBox="0 0 496 496" xml:space="preserve">
<g>
	<g>
		<path d="M448,329.136V166.864c13.768-3.576,24-16,24-30.864c0-17.648-14.352-32-32-32c-8.232,0-15.664,3.208-21.344,8.328
			L279.688,35.12C279.784,34.08,280,33.072,280,32c0-17.648-14.352-32-32-32s-32,14.352-32,32c0,1.072,0.216,2.08,0.312,3.12
			L77.336,112.328C71.664,107.208,64.232,104,56,104c-17.648,0-32,14.352-32,32c0,14.864,10.232,27.288,24,30.864v162.272
			C34.232,332.712,24,345.128,24,360c0,17.648,14.352,32,32,32c8.232,0,15.664-3.208,21.344-8.328L216.32,460.88
			c-0.104,1.04-0.32,2.048-0.32,3.12c0,17.648,14.352,32,32,32s32-14.352,32-32c0-1.072-0.216-2.08-0.312-3.12l138.976-77.208
			C424.336,388.792,431.768,392,440,392c17.648,0,32-14.352,32-32C472,345.128,461.768,332.712,448,329.136z M440,120
			c8.824,0,16,7.176,16,16c0,8.824-7.176,16-16,16c-8.824,0-16-7.176-16-16C424,127.176,431.176,120,440,120z M274.152,50.344
			l135.688,75.384c-1.104,3.24-1.84,6.656-1.84,10.272c0,5.28,1.408,10.2,3.688,14.592l-32.208,21.472
			c-25.056-43.208-70.712-72.896-123.472-75.664V62.864C263.448,60.928,269.848,56.464,274.152,50.344z M321.464,199.84
			c22.768-5.864,36.624-13.672,44.408-19.384c10.208,17.744,16.456,37.968,17.72,59.552h-55.968V240
			C326.992,225.632,324.872,212.16,321.464,199.84z M316.52,184.56c-12.008-32.136-31.032-55.896-45.216-70.408
			c34.992,6.08,65.368,25.536,85.752,52.944C351.04,171.624,338.576,178.984,316.52,184.56z M300.448,187.928
			c-12.408,2.112-27.16,3.552-44.448,3.912v-70.168C268.744,134.096,288.128,156.624,300.448,187.928z M305.72,203.232
			c3.232,11.304,5.24,23.648,5.896,36.768H256v-32.176C275.36,207.44,291.856,205.744,305.72,203.232z M311.608,256
			c-0.656,13.112-2.68,25.456-5.92,36.76c-13.856-2.512-30.336-4.2-49.688-4.584V256H311.608z M300.4,308.064
			c-12.32,31.224-31.664,53.768-44.4,66.224V304.16C273.264,304.52,288,305.952,300.4,308.064z M316.52,311.448
			c22.048,5.568,34.52,12.928,40.536,17.464c-20.392,27.408-50.76,46.864-85.752,52.944
			C285.488,367.344,304.512,343.584,316.52,311.448z M321.464,296.168c3.408-12.328,5.52-25.792,6.16-40.16h55.968
			c-1.264,21.576-7.512,41.8-17.72,59.544C358.088,309.84,344.232,302.032,321.464,296.168z M248,16c8.824,0,16,7.176,16,16
			s-7.176,16-16,16c-8.824,0-16-7.176-16-16S239.176,16,248,16z M86.16,125.728l135.696-75.384
			c4.304,6.12,10.704,10.584,18.144,12.52v33.544c-52.768,2.768-98.416,32.456-123.472,75.664L84.32,150.6
			c2.272-4.4,3.68-9.32,3.68-14.6C88,132.384,87.264,128.968,86.16,125.728z M174.536,199.832c-3.408,12.328-5.528,25.8-6.16,40.168
			h-55.968c1.264-21.584,7.512-41.808,17.72-59.552C137.912,186.168,151.768,193.968,174.536,199.832z M138.944,167.096
			c20.384-27.408,50.76-46.864,85.752-52.944c-14.184,14.504-33.208,38.264-45.216,70.408
			C157.432,178.992,144.96,171.632,138.944,167.096z M168.376,256c0.632,14.368,2.752,27.84,6.16,40.16
			c-22.768,5.864-36.624,13.672-44.408,19.384c-10.208-17.736-16.456-37.96-17.72-59.544H168.376z M179.48,311.448
			c12.008,32.136,31.04,55.896,45.224,70.408c-34.992-6.08-65.368-25.536-85.752-52.944
			C144.96,324.376,157.432,317.016,179.48,311.448z M195.552,308.072c12.408-2.112,27.16-3.552,44.448-3.912v70.168
			C227.256,361.904,207.872,339.376,195.552,308.072z M190.28,292.768c-3.232-11.296-5.24-23.648-5.896-36.768H240v32.176
			C220.64,288.56,204.144,290.256,190.28,292.768z M184.392,240c0.656-13.112,2.68-25.456,5.92-36.76
			c13.856,2.512,30.336,4.2,49.688,4.584V240H184.392z M195.6,187.928c12.32-31.216,31.664-53.76,44.4-66.216v70.12
			C222.736,191.472,208,190.04,195.6,187.928z M40,136c0-8.824,7.176-16,16-16c8.824,0,16,7.176,16,16c0,8.824-7.176,16-16,16
			S40,144.824,40,136z M56,376c-8.824,0-16-7.176-16-16c0-8.824,7.176-16,16-16c8.824,0,16,7.176,16,16
			C72,368.824,64.824,376,56,376z M77.296,336.288c-3.752-3.368-8.272-5.848-13.296-7.152V166.864
			c3.448-0.896,6.704-2.264,9.6-4.184l35.568,23.712C100.768,205.248,96,226.064,96,248c0,24.248,5.856,47.112,16,67.472
			L77.296,336.288z M221.864,445.664L86.16,370.272C87.264,367.032,88,363.616,88,360c0-3.64-0.744-7.088-1.864-10.352
			l33.728-20.232c25.656,40.232,69.64,67.536,120.144,70.184v33.544C232.568,435.08,226.168,439.544,221.864,445.664z M248,480
			c-8.824,0-16-7.176-16-16c0-8.824,7.176-16,16-16c8.824,0,16,7.176,16,16C264,472.824,256.824,480,248,480z M409.84,370.272
			l-135.696,75.384c-4.304-6.12-10.704-10.584-18.144-12.52v-33.544c50.504-2.648,94.488-29.944,120.144-70.184l33.728,20.232
			C408.744,352.912,408,356.36,408,360C408,363.616,408.736,367.032,409.84,370.272z M384,315.472c10.144-20.36,16-43.224,16-67.472
			c0-21.936-4.768-42.752-13.168-61.608L422.4,162.68c2.896,1.92,6.152,3.288,9.6,4.184v162.272
			c-5.024,1.304-9.544,3.784-13.296,7.16L384,315.472z M440,376c-8.824,0-16-7.176-16-16c0-8.824,7.176-16,16-16
			c8.824,0,16,7.176,16,16C456,368.824,448.824,376,440,376z"/>
	</g>
</g>
</svg>